<svg width="1024" height="1024" viewBox="0 0 1024 1024" fill="none" xmlns="http://www.w3.org/2000/svg">
  <defs>
    <!-- Fibonacci Golden Ratio: 1.618 -->
    <!-- Background Stormy Sky -->
    <linearGradient id="storm-bg" x1="0%" y1="0%" x2="100%" y2="100%">
      <stop offset="0%" style="stop-color:#0a1128;stop-opacity:1" />
      <stop offset="50%" style="stop-color:#1e3a5f;stop-opacity:1" />
      <stop offset="100%" style="stop-color:#2e5090;stop-opacity:1" />
    </linearGradient>
    
    <!-- Golden Aladdin Gradient -->
    <linearGradient id="golden-aladdin" x1="50%" y1="0%" x2="50%" y2="100%">
      <stop offset="0%" style="stop-color:#FCD34D;stop-opacity:1" />
      <stop offset="50%" style="stop-color:#F59E0B;stop-opacity:1" />
      <stop offset="100%" style="stop-color:#D97706;stop-opacity:1" />
    </linearGradient>
    
    <!-- Golden Glow -->
    <linearGradient id="golden-glow" x1="50%" y1="0%" x2="50%" y2="100%">
      <stop offset="0%" style="stop-color:#FCD34D;stop-opacity:0.8" />
      <stop offset="100%" style="stop-color:#F59E0B;stop-opacity:0" />
    </linearGradient>
    
    <!-- Fibonacci Glow Filter -->
    <filter id="fibonacci-glow" x="-50%" y="-50%" width="200%" height="200%">
      <feGaussianBlur stdDeviation="20" result="coloredBlur"/>
      <feMerge>
        <feMergeNode in="coloredBlur"/>
        <feMergeNode in="SourceGraphic"/>
      </feMerge>
    </filter>
  </defs>
  
  <!-- Background (Fibonacci Rectangle: 1024 × 633) -->
  <rect width="1024" height="1024" rx="226" fill="url(#storm-bg)"/>
  
  <!-- Fibonacci Golden Circle (Radius: 316px = 1024/1.618/2) -->
  <circle cx="512" cy="512" r="316" fill="none" stroke="url(#golden-glow)" stroke-width="8" opacity="0.3"/>
  
  <!-- Aladdin Figure (Fibonacci Proportions) -->
  <g transform="translate(512, 400)">
    <!-- Aladdin Head (Fibonacci Circle: r=89px) -->
    <circle cx="0" cy="-89" r="89" fill="url(#golden-aladdin)" filter="url(#fibonacci-glow)"/>
    
    <!-- Aladdin Body (Fibonacci Rectangle: 144×233px) -->
    <rect x="-72" y="-20" width="144" height="233" rx="20" fill="url(#golden-aladdin)" filter="url(#fibonacci-glow)"/>
    
    <!-- Aladdin Arms (Fibonacci Length: 144px each) -->
    <!-- Left Arm -->
    <rect x="-120" y="20" width="24" height="144" rx="12" fill="url(#golden-aladdin)" transform="rotate(-30 -120 20)" filter="url(#fibonacci-glow)"/>
    <!-- Right Arm -->
    <rect x="96" y="20" width="24" height="144" rx="12" fill="url(#golden-aladdin)" transform="rotate(30 96 20)" filter="url(#fibonacci-glow)"/>
    
    <!-- Aladdin Legs (Fibonacci Length: 233px each) -->
    <!-- Left Leg -->
    <rect x="-36" y="213" width="24" height="233" rx="12" fill="url(#golden-aladdin)" filter="url(#fibonacci-glow)"/>
    <!-- Right Leg -->
    <rect x="12" y="213" width="24" height="233" rx="12" fill="url(#golden-aladdin)" filter="url(#fibonacci-glow)"/>
    
    <!-- Aladdin Features -->
    <!-- Eyes (Fibonacci Circles: r=21px) -->
    <circle cx="-28" cy="-89" r="21" fill="#0a1128"/>
    <circle cx="28" cy="-89" r="21" fill="#0a1128"/>
    
    <!-- Nose (Fibonacci Triangle) -->
    <path d="M 0 -50 L -14 -30 L 14 -30 Z" fill="#D97706"/>
    
    <!-- Mouth (Fibonacci Arc) -->
    <path d="M -21 -10 Q 0 10 21 -10" stroke="#0a1128" stroke-width="4" fill="none"/>
    
    <!-- Crown/Feather (Fibonacci Spiral inspired) -->
    <path d="M 0 -178 Q 21 -200 42 -178 Q 63 -156 42 -134 Q 21 -112 0 -134 Q -21 -156 0 -178" 
          fill="#FCD34D" opacity="0.9"/>
  </g>
  
  <!-- Golden "A" (Fibonacci Size: 89×144px) -->
  <g transform="translate(512, 580)">
    <path d="M -44 72 L 0 -72 L 44 72" 
          stroke="#FFFFFF" 
          stroke-width="32" 
          stroke-linecap="round" 
          stroke-linejoin="round" 
          fill="none"
          filter="url(#fibonacci-glow)"/>
    <line x1="-22" y1="10" x2="22" y2="10" 
          stroke="#FFFFFF" 
          stroke-width="32" 
          stroke-linecap="round"/>
  </g>
  
  <!-- Fibonacci Spiral Decoration -->
  <g opacity="0.4" stroke="#FCD34D" stroke-width="2" fill="none">
    <!-- Spiral based on Fibonacci sequence: 1, 1, 2, 3, 5, 8, 13, 21, 34, 55, 89 -->
    <path d="M 200 200 Q 200 144 256 144 Q 312 144 312 200 Q 312 256 256 256 Q 200 256 200 200 Q 200 172 228 172 Q 256 172 256 200 Q 256 228 228 228 Q 200 228 200 200"/>
    <path d="M 824 200 Q 824 144 768 144 Q 712 144 712 200 Q 712 256 768 256 Q 824 256 824 200 Q 824 172 796 172 Q 768 172 768 200 Q 768 228 796 228 Q 824 228 824 200"/>
  </g>
  
  <!-- Bottom Text (Fibonacci Typography) -->
  <text x="512" y="850" 
        font-family="Arial, sans-serif" 
        font-size="55" 
        font-weight="900" 
        fill="#FCD34D" 
        text-anchor="middle"
        letter-spacing="8">ALADDIN</text>
</svg>


