<svg width="1024" height="1024" viewBox="0 0 1024 1024" fill="none" xmlns="http://www.w3.org/2000/svg">
  <defs>
    <!-- Cosmic Background -->
    <linearGradient id="cosmic-bg" x1="0%" y1="0%" x2="100%" y2="100%">
      <stop offset="0%" style="stop-color:#0a1128;stop-opacity:1" />
      <stop offset="30%" style="stop-color:#1e3a5f;stop-opacity:1" />
      <stop offset="70%" style="stop-color:#2e5090;stop-opacity:1" />
      <stop offset="100%" style="stop-color:#1e40af;stop-opacity:1" />
    </linearGradient>
    
    <!-- Golden Star Gradient -->
    <radialGradient id="golden-star" cx="50%" cy="50%" r="50%">
      <stop offset="0%" style="stop-color:#FCD34D;stop-opacity:1" />
      <stop offset="50%" style="stop-color:#F59E0B;stop-opacity:1" />
      <stop offset="100%" style="stop-color:#D97706;stop-opacity:1" />
    </radialGradient>
    
    <!-- Golden Glow -->
    <linearGradient id="golden-glow" x1="50%" y1="0%" x2="50%" y2="100%">
      <stop offset="0%" style="stop-color:#FCD34D;stop-opacity:0.8" />
      <stop offset="100%" style="stop-color:#F59E0B;stop-opacity:0" />
    </linearGradient>
    
    <!-- Fibonacci Glow Filter -->
    <filter id="fibonacci-glow" x="-50%" y="-50%" width="200%" height="200%">
      <feGaussianBlur stdDeviation="25" result="coloredBlur"/>
      <feMerge>
        <feMergeNode in="coloredBlur"/>
        <feMergeNode in="SourceGraphic"/>
      </feMerge>
    </filter>
  </defs>
  
  <!-- Background -->
  <rect width="1024" height="1024" rx="226" fill="url(#cosmic-bg)"/>
  
  <!-- Fibonacci Golden Spiral -->
  <g opacity="0.2" stroke="#FCD34D" stroke-width="4" fill="none">
    <!-- Spiral based on Fibonacci sequence -->
    <path d="M 512 512 Q 512 368 656 368 Q 800 368 800 512 Q 800 656 656 656 Q 512 656 512 512 Q 512 512 580 512 Q 648 512 648 580 Q 648 648 580 648 Q 512 648 512 580 Q 512 512 512 512"/>
  </g>
  
  <!-- Cosmic Constellation (Fibonacci Proportions) -->
  <g transform="translate(512, 450)">
    <!-- Central Star (Fibonacci Circle: r=144px) -->
    <circle cx="0" cy="0" r="144" fill="url(#golden-star)" filter="url(#fibonacci-glow)"/>
    
    <!-- 5-pointed Central Star -->
    <path d="M 0 -144 L 42 -44 L 116 -44 L 58 18 L 94 92 L 0 58 L -94 92 L -58 18 L -116 -44 L -42 -44 Z" 
          fill="#FFFFFF" opacity="0.9"/>
    
    <!-- Constellation Stars (Fibonacci Positions) -->
    <!-- Top Star -->
    <g transform="translate(0, -233)">
      <circle cx="0" cy="0" r="55" fill="url(#golden-star)" opacity="0.8" filter="url(#fibonacci-glow)"/>
      <path d="M 0 -55 L 16 -17 L 55 -17 L 25 7 L 34 46 L 0 28 L -34 46 L -25 7 L -55 -17 L -16 -17 Z" 
            fill="#FFFFFF" opacity="0.8"/>
    </g>
    
    <!-- Right Star -->
    <g transform="translate(233, 0)">
      <circle cx="0" cy="0" r="55" fill="url(#golden-star)" opacity="0.8" filter="url(#fibonacci-glow)"/>
      <path d="M 0 -55 L 16 -17 L 55 -17 L 25 7 L 34 46 L 0 28 L -34 46 L -25 7 L -55 -17 L -16 -17 Z" 
            fill="#FFFFFF" opacity="0.8"/>
    </g>
    
    <!-- Bottom Star -->
    <g transform="translate(0, 233)">
      <circle cx="0" cy="0" r="55" fill="url(#golden-star)" opacity="0.8" filter="url(#fibonacci-glow)"/>
      <path d="M 0 -55 L 16 -17 L 55 -17 L 25 7 L 34 46 L 0 28 L -34 46 L -25 7 L -55 -17 L -16 -17 Z" 
            fill="#FFFFFF" opacity="0.8"/>
    </g>
    
    <!-- Left Star -->
    <g transform="translate(-233, 0)">
      <circle cx="0" cy="0" r="55" fill="url(#golden-star)" opacity="0.8" filter="url(#fibonacci-glow)"/>
      <path d="M 0 -55 L 16 -17 L 55 -17 L 25 7 L 34 46 L 0 28 L -34 46 L -25 7 L -55 -17 L -16 -17 Z" 
            fill="#FFFFFF" opacity="0.8"/>
    </g>
    
    <!-- Diagonal Stars (Fibonacci Positions) -->
    <!-- Top-Right Star -->
    <g transform="translate(165, -165)">
      <circle cx="0" cy="0" r="34" fill="url(#golden-star)" opacity="0.7" filter="url(#fibonacci-glow)"/>
      <path d="M 0 -34 L 10 -10 L 34 -10 L 15 4 L 21 28 L 0 17 L -21 28 L -15 4 L -34 -10 L -10 -10 Z" 
            fill="#FFFFFF" opacity="0.7"/>
    </g>
    
    <!-- Top-Left Star -->
    <g transform="translate(-165, -165)">
      <circle cx="0" cy="0" r="34" fill="url(#golden-star)" opacity="0.7" filter="url(#fibonacci-glow)"/>
      <path d="M 0 -34 L 10 -10 L 34 -10 L 15 4 L 21 28 L 0 17 L -21 28 L -15 4 L -34 -10 L -10 -10 Z" 
            fill="#FFFFFF" opacity="0.7"/>
    </g>
    
    <!-- Bottom-Right Star -->
    <g transform="translate(165, 165)">
      <circle cx="0" cy="0" r="34" fill="url(#golden-star)" opacity="0.7" filter="url(#fibonacci-glow)"/>
      <path d="M 0 -34 L 10 -10 L 34 -10 L 15 4 L 21 28 L 0 17 L -21 28 L -15 4 L -34 -10 L -10 -10 Z" 
            fill="#FFFFFF" opacity="0.7"/>
    </g>
    
    <!-- Bottom-Left Star -->
    <g transform="translate(-165, 165)">
      <circle cx="0" cy="0" r="34" fill="url(#golden-star)" opacity="0.7" filter="url(#fibonacci-glow)"/>
      <path d="M 0 -34 L 10 -10 L 34 -10 L 15 4 L 21 28 L 0 17 L -21 28 L -15 4 L -34 -10 L -10 -10 Z" 
            fill="#FFFFFF" opacity="0.7"/>
    </g>
    
    <!-- Constellation Lines (Fibonacci Connections) -->
    <g stroke="#FCD34D" stroke-width="3" fill="none" opacity="0.6">
      <!-- Central connections -->
      <line x1="0" y1="-144" x2="0" y2="-233"/>
      <line x1="144" y1="0" x2="233" y2="0"/>
      <line x1="0" y1="144" x2="0" y2="233"/>
      <line x1="-144" y1="0" x2="-233" y2="0"/>
      
      <!-- Diagonal connections -->
      <line x1="102" y1="-102" x2="165" y2="-165"/>
      <line x1="-102" y1="-102" x2="-165" y2="-165"/>
      <line x1="102" y1="102" x2="165" y2="165"/>
      <line x1="-102" y1="102" x2="-165" y2="165"/>
    </g>
    
    <!-- Mystical Symbols -->
    <g opacity="0.6" fill="#FCD34D">
      <!-- Fibonacci Circles -->
      <circle cx="0" cy="-350" r="21" opacity="0.8"/>
      <circle cx="350" cy="0" r="21" opacity="0.8"/>
      <circle cx="0" cy="350" r="21" opacity="0.8"/>
      <circle cx="-350" cy="0" r="21" opacity="0.8"/>
    </g>
  </g>
  
  <!-- Golden "A" (Fibonacci Size: 89×144px) -->
  <g transform="translate(512, 720)">
    <path d="M -44 72 L 0 -72 L 44 72" 
          stroke="#FFFFFF" 
          stroke-width="32" 
          stroke-linecap="round" 
          stroke-linejoin="round" 
          fill="none"
          filter="url(#fibonacci-glow)"/>
    <line x1="-22" y1="10" x2="22" y2="10" 
          stroke="#FFFFFF" 
          stroke-width="32" 
          stroke-linecap="round"/>
  </g>
  
  <!-- Fibonacci Spiral Stars -->
  <g opacity="0.8" fill="#FCD34D">
    <!-- Stars positioned on Fibonacci grid -->
    <g transform="translate(150, 150)">
      <path d="M 0 -21 L 6 -6 L 21 -6 L 10 3 L 16 18 L 0 9 L -16 18 L -10 3 L -21 -6 L -6 -6 Z" opacity="0.8"/>
    </g>
    <g transform="translate(874, 150)">
      <path d="M 0 -21 L 6 -6 L 21 -6 L 10 3 L 16 18 L 0 9 L -16 18 L -10 3 L -21 -6 L -6 -6 Z" opacity="0.8"/>
    </g>
    <g transform="translate(150, 874)">
      <path d="M 0 -21 L 6 -6 L 21 -6 L 10 3 L 16 18 L 0 9 L -16 18 L -10 3 L -21 -6 L -6 -6 Z" opacity="0.8"/>
    </g>
    <g transform="translate(874, 874)">
      <path d="M 0 -21 L 6 -6 L 21 -6 L 10 3 L 16 18 L 0 9 L -16 18 L -10 3 L -21 -6 L -6 -6 Z" opacity="0.8"/>
    </g>
  </g>
  
  <!-- Bottom Text -->
  <text x="512" y="850" 
        font-family="Arial, sans-serif" 
        font-size="55" 
        font-weight="900" 
        fill="#FCD34D" 
        text-anchor="middle"
        letter-spacing="8">ALADDIN</text>
</svg>


