<svg width="1024" height="1024" viewBox="0 0 1024 1024" fill="none" xmlns="http://www.w3.org/2000/svg">
  <defs>
    <!-- Cosmic Background -->
    <linearGradient id="cosmic-bg" x1="0%" y1="0%" x2="100%" y2="100%">
      <stop offset="0%" style="stop-color:#0a1128;stop-opacity:1" />
      <stop offset="30%" style="stop-color:#1e3a5f;stop-opacity:1" />
      <stop offset="70%" style="stop-color:#2e5090;stop-opacity:1" />
      <stop offset="100%" style="stop-color:#1e40af;stop-opacity:1" />
    </linearGradient>
    
    <!-- Golden Star Gradient -->
    <radialGradient id="golden-star" cx="50%" cy="50%" r="50%">
      <stop offset="0%" style="stop-color:#FCD34D;stop-opacity:1" />
      <stop offset="50%" style="stop-color:#F59E0B;stop-opacity:1" />
      <stop offset="100%" style="stop-color:#D97706;stop-opacity:1" />
    </radialGradient>
    
    <!-- Golden Glow -->
    <linearGradient id="golden-glow" x1="50%" y1="0%" x2="50%" y2="100%">
      <stop offset="0%" style="stop-color:#FCD34D;stop-opacity:0.8" />
      <stop offset="100%" style="stop-color:#F59E0B;stop-opacity:0" />
    </linearGradient>
    
    <!-- Fibonacci Glow Filter -->
    <filter id="fibonacci-glow" x="-50%" y="-50%" width="200%" height="200%">
      <feGaussianBlur stdDeviation="25" result="coloredBlur"/>
      <feMerge>
        <feMergeNode in="coloredBlur"/>
        <feMergeNode in="SourceGraphic"/>
      </feMerge>
    </filter>
  </defs>
  
  <!-- Background -->
  <rect width="1024" height="1024" rx="226" fill="url(#cosmic-bg)"/>
  
  <!-- Fibonacci Golden Spiral -->
  <g opacity="0.3" stroke="#FCD34D" stroke-width="4" fill="none">
    <!-- Spiral based on Fibonacci sequence -->
    <path d="M 512 512 Q 512 368 656 368 Q 800 368 800 512 Q 800 656 656 656 Q 512 656 512 512 Q 512 512 580 512 Q 648 512 648 580 Q 648 648 580 648 Q 512 648 512 580 Q 512 512 512 512"/>
  </g>
  
  <!-- Central Golden Star (Fibonacci Proportions) -->
  <g transform="translate(512, 450)">
    <!-- Outer Star Ring (Fibonacci Circle: r=233px) -->
    <circle cx="0" cy="0" r="233" fill="none" stroke="url(#golden-glow)" stroke-width="8" opacity="0.4" filter="url(#fibonacci-glow)"/>
    
    <!-- Main Golden Star (Fibonacci Size: 377×377px) -->
    <g transform="translate(0, 0)">
      <!-- 8-pointed star -->
      <path d="M 0 -188 L 44 -133 L 133 -133 L 66 -78 L 111 -22 L 0 -44 L -111 -22 L -66 -78 L -133 -133 L -44 -133 Z" 
            fill="url(#golden-star)" 
            filter="url(#fibonacci-glow)"/>
      
      <!-- Inner star -->
      <path d="M 0 -144 L 34 -102 L 102 -102 L 51 -59 L 85 -17 L 0 -34 L -85 -17 L -51 -59 L -102 -102 L -34 -102 Z" 
            fill="#FCD34D" opacity="0.9"/>
      
      <!-- Core star -->
      <path d="M 0 -89 L 21 -68 L 68 -68 L 34 -34 L 55 -12 L 0 -21 L -55 -12 L -34 -34 L -68 -68 L -21 -68 Z" 
            fill="#FFFFFF" opacity="0.8"/>
    </g>
    
    <!-- Fibonacci Spiral Rays -->
    <g opacity="0.6" stroke="#FCD34D" stroke-width="4" fill="none">
      <!-- 8 rays based on Fibonacci angles -->
      <line x1="0" y1="-233" x2="0" y2="-350" stroke-linecap="round"/>
      <line x1="165" y1="-165" x2="247" y2="-247" stroke-linecap="round"/>
      <line x1="233" y1="0" x2="350" y2="0" stroke-linecap="round"/>
      <line x1="165" y1="165" x2="247" y2="247" stroke-linecap="round"/>
      <line x1="0" y1="233" x2="0" y2="350" stroke-linecap="round"/>
      <line x1="-165" y1="165" x2="-247" y2="247" stroke-linecap="round"/>
      <line x1="-233" y1="0" x2="-350" y2="0" stroke-linecap="round"/>
      <line x1="-165" y1="-165" x2="-247" y2="-247" stroke-linecap="round"/>
    </g>
    
    <!-- Mystical Symbols Around Star -->
    <g opacity="0.7" fill="#FCD34D">
      <!-- Fibonacci Circles -->
      <circle cx="0" cy="-400" r="21" opacity="0.8"/>
      <circle cx="283" cy="-283" r="21" opacity="0.8"/>
      <circle cx="400" cy="0" r="21" opacity="0.8"/>
      <circle cx="283" cy="283" r="21" opacity="0.8"/>
      <circle cx="0" cy="400" r="21" opacity="0.8"/>
      <circle cx="-283" cy="283" r="21" opacity="0.8"/>
      <circle cx="-400" cy="0" r="21" opacity="0.8"/>
      <circle cx="-283" cy="-283" r="21" opacity="0.8"/>
    </g>
  </g>
  
  <!-- Golden "A" (Fibonacci Size: 89×144px) -->
  <g transform="translate(512, 720)">
    <path d="M -44 72 L 0 -72 L 44 72" 
          stroke="#FFFFFF" 
          stroke-width="32" 
          stroke-linecap="round" 
          stroke-linejoin="round" 
          fill="none"
          filter="url(#fibonacci-glow)"/>
    <line x1="-22" y1="10" x2="22" y2="10" 
          stroke="#FFFFFF" 
          stroke-width="32" 
          stroke-linecap="round"/>
  </g>
  
  <!-- Fibonacci Spiral Stars -->
  <g opacity="0.8" fill="#FCD34D">
    <!-- Stars positioned on Fibonacci grid -->
    <g transform="translate(200, 200)">
      <path d="M 0 -21 L 6 -6 L 21 -6 L 10 3 L 16 18 L 0 9 L -16 18 L -10 3 L -21 -6 L -6 -6 Z" opacity="0.8"/>
    </g>
    <g transform="translate(824, 200)">
      <path d="M 0 -21 L 6 -6 L 21 -6 L 10 3 L 16 18 L 0 9 L -16 18 L -10 3 L -21 -6 L -6 -6 Z" opacity="0.8"/>
    </g>
    <g transform="translate(200, 824)">
      <path d="M 0 -21 L 6 -6 L 21 -6 L 10 3 L 16 18 L 0 9 L -16 18 L -10 3 L -21 -6 L -6 -6 Z" opacity="0.8"/>
    </g>
    <g transform="translate(824, 824)">
      <path d="M 0 -21 L 6 -6 L 21 -6 L 10 3 L 16 18 L 0 9 L -16 18 L -10 3 L -21 -6 L -6 -6 Z" opacity="0.8"/>
    </g>
  </g>
  
  <!-- Bottom Text -->
  <text x="512" y="850" 
        font-family="Arial, sans-serif" 
        font-size="55" 
        font-weight="900" 
        fill="#FCD34D" 
        text-anchor="middle"
        letter-spacing="8">ALADDIN</text>
</svg>


