<svg width="1024" height="1024" viewBox="0 0 1024 1024" fill="none" xmlns="http://www.w3.org/2000/svg">
  <defs>
    <!-- Stormy Sky Background -->
    <linearGradient id="storm-bg" x1="0%" y1="0%" x2="100%" y2="100%">
      <stop offset="0%" style="stop-color:#0a1128;stop-opacity:1" />
      <stop offset="50%" style="stop-color:#1e3a5f;stop-opacity:1" />
      <stop offset="100%" style="stop-color:#2e5090;stop-opacity:1" />
    </linearGradient>
    
    <!-- Golden Eye Gradient -->
    <radialGradient id="golden-eye" cx="50%" cy="50%" r="50%">
      <stop offset="0%" style="stop-color:#FCD34D;stop-opacity:1" />
      <stop offset="50%" style="stop-color:#F59E0B;stop-opacity:1" />
      <stop offset="100%" style="stop-color:#D97706;stop-opacity:1" />
    </radialGradient>
    
    <!-- Golden Glow -->
    <linearGradient id="golden-glow" x1="50%" y1="0%" x2="50%" y2="100%">
      <stop offset="0%" style="stop-color:#FCD34D;stop-opacity:0.8" />
      <stop offset="100%" style="stop-color:#F59E0B;stop-opacity:0" />
    </linearGradient>
    
    <!-- Fibonacci Glow Filter -->
    <filter id="fibonacci-glow" x="-50%" y="-50%" width="200%" height="200%">
      <feGaussianBlur stdDeviation="25" result="coloredBlur"/>
      <feMerge>
        <feMergeNode in="coloredBlur"/>
        <feMergeNode in="SourceGraphic"/>
      </feMerge>
    </filter>
  </defs>
  
  <!-- Background -->
  <rect width="1024" height="1024" rx="226" fill="url(#storm-bg)"/>
  
  <!-- Fibonacci Golden Triangle -->
  <g opacity="0.2" stroke="#FCD34D" stroke-width="4" fill="none">
    <path d="M 512 100 L 900 700 L 124 700 Z" stroke-linejoin="round"/>
  </g>
  
  <!-- Triple Golden Eye (Fibonacci Proportions) -->
  <g transform="translate(512, 400)">
    <!-- Central Eye (Fibonacci Circle: r=144px) -->
    <circle cx="0" cy="0" r="144" fill="url(#golden-eye)" filter="url(#fibonacci-glow)"/>
    <circle cx="0" cy="0" r="89" fill="#D97706"/>
    <circle cx="0" cy="0" r="55" fill="#0a1128"/>
    
    <!-- Left Eye (Fibonacci Circle: r=89px) -->
    <g transform="translate(-233, 0)">
      <circle cx="0" cy="0" r="89" fill="url(#golden-eye)" opacity="0.8" filter="url(#fibonacci-glow)"/>
      <circle cx="0" cy="0" r="55" fill="#D97706"/>
      <circle cx="0" cy="0" r="34" fill="#0a1128"/>
    </g>
    
    <!-- Right Eye (Fibonacci Circle: r=89px) -->
    <g transform="translate(233, 0)">
      <circle cx="0" cy="0" r="89" fill="url(#golden-eye)" opacity="0.8" filter="url(#fibonacci-glow)"/>
      <circle cx="0" cy="0" r="55" fill="#D97706"/>
      <circle cx="0" cy="0" r="34" fill="#0a1128"/>
    </g>
    
    <!-- Eye Connections (Fibonacci Lines) -->
    <g stroke="#FCD34D" stroke-width="6" fill="none" opacity="0.6">
      <line x1="-144" y1="0" x2="-144" y2="0"/>
      <line x1="144" y1="0" x2="144" y2="0"/>
    </g>
    
    <!-- Central Eye Highlight (Fibonacci Star) -->
    <g transform="translate(-21, -21)">
      <path d="M 21 0 L 26 16 L 42 16 L 29 26 L 34 42 L 21 32 L 8 42 L 13 26 L 0 16 L 16 16 Z" 
            fill="#FFFFFF" opacity="0.9"/>
    </g>
    
    <!-- Left Eye Highlight -->
    <g transform="translate(-254, -21)">
      <path d="M 21 0 L 26 16 L 42 16 L 29 26 L 34 42 L 21 32 L 8 42 L 13 26 L 0 16 L 16 16 Z" 
            fill="#FFFFFF" opacity="0.8"/>
    </g>
    
    <!-- Right Eye Highlight -->
    <g transform="translate(212, -21)">
      <path d="M 21 0 L 26 16 L 42 16 L 29 26 L 34 42 L 21 32 L 8 42 L 13 26 L 0 16 L 16 16 Z" 
            fill="#FFFFFF" opacity="0.8"/>
    </g>
    
    <!-- Mystical Eyelids (Fibonacci Arcs) -->
    <g stroke="#FCD34D" stroke-width="8" fill="none" opacity="0.7">
      <!-- Central Eyelid -->
      <path d="M -144 -72 Q 0 -100 144 -72" stroke-linecap="round"/>
      <!-- Left Eyelid -->
      <path d="M -233 -45 Q -233 -65 -233 -85" stroke-linecap="round"/>
      <!-- Right Eyelid -->
      <path d="M 233 -45 Q 233 -65 233 -85" stroke-linecap="round"/>
    </g>
    
    <!-- Fibonacci Spiral Iris Patterns -->
    <g opacity="0.8" stroke="#FCD34D" stroke-width="2" fill="none">
      <!-- Central Eye Spirals -->
      <path d="M 0 0 Q 21 -21 0 -42 Q -21 -63 0 -84 Q 21 -105 0 -126 Q -21 -147 0 -168"/>
      <path d="M 0 0 Q -21 -21 0 -42 Q 21 -63 0 -84 Q -21 -105 0 -126 Q 21 -147 0 -168"/>
      
      <!-- Left Eye Spirals -->
      <g transform="translate(-233, 0)">
        <path d="M 0 0 Q 13 -13 0 -26 Q -13 -39 0 -52 Q 13 -65 0 -78 Q -13 -91 0 -104"/>
        <path d="M 0 0 Q -13 -13 0 -26 Q 13 -39 0 -52 Q -13 -65 0 -78 Q 13 -91 0 -104"/>
      </g>
      
      <!-- Right Eye Spirals -->
      <g transform="translate(233, 0)">
        <path d="M 0 0 Q 13 -13 0 -26 Q -13 -39 0 -52 Q 13 -65 0 -78 Q -13 -91 0 -104"/>
        <path d="M 0 0 Q -13 -13 0 -26 Q 13 -39 0 -52 Q -13 -65 0 -78 Q 13 -91 0 -104"/>
      </g>
    </g>
    
    <!-- Mystical Symbols -->
    <g opacity="0.6" fill="#FCD34D">
      <!-- Fibonacci Circles -->
      <circle cx="0" cy="-300" r="21" opacity="0.8"/>
      <circle cx="0" cy="300" r="21" opacity="0.8"/>
      <circle cx="-400" cy="0" r="21" opacity="0.8"/>
      <circle cx="400" cy="0" r="21" opacity="0.8"/>
    </g>
  </g>
  
  <!-- Golden "A" (Fibonacci Size: 89×144px) -->
  <g transform="translate(512, 720)">
    <path d="M -44 72 L 0 -72 L 44 72" 
          stroke="#FFFFFF" 
          stroke-width="32" 
          stroke-linecap="round" 
          stroke-linejoin="round" 
          fill="none"
          filter="url(#fibonacci-glow)"/>
    <line x1="-22" y1="10" x2="22" y2="10" 
          stroke="#FFFFFF" 
          stroke-width="32" 
          stroke-linecap="round"/>
  </g>
  
  <!-- Fibonacci Spiral Stars -->
  <g opacity="0.7" fill="#FCD34D">
    <!-- Stars positioned on Fibonacci grid -->
    <g transform="translate(100, 100)">
      <path d="M 0 -21 L 6 -6 L 21 -6 L 10 3 L 16 18 L 0 9 L -16 18 L -10 3 L -21 -6 L -6 -6 Z" opacity="0.8"/>
    </g>
    <g transform="translate(924, 100)">
      <path d="M 0 -21 L 6 -6 L 21 -6 L 10 3 L 16 18 L 0 9 L -16 18 L -10 3 L -21 -6 L -6 -6 Z" opacity="0.8"/>
    </g>
    <g transform="translate(100, 924)">
      <path d="M 0 -21 L 6 -6 L 21 -6 L 10 3 L 16 18 L 0 9 L -16 18 L -10 3 L -21 -6 L -6 -6 Z" opacity="0.8"/>
    </g>
    <g transform="translate(924, 924)">
      <path d="M 0 -21 L 6 -6 L 21 -6 L 10 3 L 16 18 L 0 9 L -16 18 L -10 3 L -21 -6 L -6 -6 Z" opacity="0.8"/>
    </g>
  </g>
  
  <!-- Bottom Text -->
  <text x="512" y="900" 
        font-family="Arial, sans-serif" 
        font-size="55" 
        font-weight="900" 
        fill="#FCD34D" 
        text-anchor="middle"
        letter-spacing="8">ALADDIN</text>
</svg>


