<svg width="1024" height="1024" viewBox="0 0 1024 1024" fill="none" xmlns="http://www.w3.org/2000/svg">
  <defs>
    <!-- Stormy Sky Background -->
    <linearGradient id="storm-bg" x1="0%" y1="0%" x2="100%" y2="100%">
      <stop offset="0%" style="stop-color:#0a1128;stop-opacity:1" />
      <stop offset="50%" style="stop-color:#1e3a5f;stop-opacity:1" />
      <stop offset="100%" style="stop-color:#2e5090;stop-opacity:1" />
    </linearGradient>
    
    <!-- Golden Aladdin Gradient -->
    <linearGradient id="golden-aladdin" x1="50%" y1="0%" x2="50%" y2="100%">
      <stop offset="0%" style="stop-color:#FCD34D;stop-opacity:1" />
      <stop offset="50%" style="stop-color:#F59E0B;stop-opacity:1" />
      <stop offset="100%" style="stop-color:#D97706;stop-opacity:1" />
    </linearGradient>
    
    <!-- Golden Glow -->
    <linearGradient id="golden-glow" x1="50%" y1="0%" x2="50%" y2="100%">
      <stop offset="0%" style="stop-color:#FCD34D;stop-opacity:0.8" />
      <stop offset="100%" style="stop-color:#F59E0B;stop-opacity:0" />
    </linearGradient>
    
    <!-- Fibonacci Glow Filter -->
    <filter id="fibonacci-glow" x="-50%" y="-50%" width="200%" height="200%">
      <feGaussianBlur stdDeviation="20" result="coloredBlur"/>
      <feMerge>
        <feMergeNode in="coloredBlur"/>
        <feMergeNode in="SourceGraphic"/>
      </feMerge>
    </filter>
  </defs>
  
  <!-- Background -->
  <rect width="1024" height="1024" rx="226" fill="url(#storm-bg)"/>
  
  <!-- Fibonacci Golden Spiral -->
  <g opacity="0.3" stroke="#FCD34D" stroke-width="3" fill="none">
    <!-- Spiral based on Fibonacci rectangles: 1, 1, 2, 3, 5, 8, 13, 21, 34, 55, 89, 144 -->
    <path d="M 512 512 Q 512 368 656 368 Q 800 368 800 512 Q 800 656 656 656 Q 512 656 512 512 Q 512 512 580 512 Q 648 512 648 580 Q 648 648 580 648 Q 512 648 512 580 Q 512 512 512 512"/>
  </g>
  
  <!-- Aladdin with Genie (Fibonacci Proportions) -->
  <g transform="translate(512, 380)">
    <!-- Aladdin Head (Fibonacci Circle: r=89px) -->
    <circle cx="0" cy="-89" r="89" fill="url(#golden-aladdin)" filter="url(#fibonacci-glow)"/>
    
    <!-- Aladdin Body (Fibonacci Rectangle: 89×144px) -->
    <rect x="-44" y="0" width="89" height="144" rx="15" fill="url(#golden-aladdin)" filter="url(#fibonacci-glow)"/>
    
    <!-- Aladdin Arms -->
    <!-- Left Arm -->
    <rect x="-70" y="20" width="18" height="144" rx="9" fill="url(#golden-aladdin)" transform="rotate(-25 -70 20)" filter="url(#fibonacci-glow)"/>
    <!-- Right Arm -->
    <rect x="52" y="20" width="18" height="144" rx="9" fill="url(#golden-aladdin)" transform="rotate(25 52 20)" filter="url(#fibonacci-glow)"/>
    
    <!-- Aladdin Legs -->
    <!-- Left Leg -->
    <rect x="-25" y="144" width="15" height="144" rx="8" fill="url(#golden-aladdin)" filter="url(#fibonacci-glow)"/>
    <!-- Right Leg -->
    <rect x="10" y="144" width="15" height="144" rx="8" fill="url(#golden-aladdin)" filter="url(#fibonacci-glow)"/>
    
    <!-- Aladdin Features -->
    <!-- Eyes -->
    <circle cx="-28" cy="-89" r="21" fill="#0a1128"/>
    <circle cx="28" cy="-89" r="21" fill="#0a1128"/>
    
    <!-- Genie (Fibonacci Size: 144×233px) -->
    <g transform="translate(200, -50)">
      <!-- Genie Body (Bottle shape) -->
      <ellipse cx="0" cy="0" rx="72" ry="116" fill="url(#golden-aladdin)" opacity="0.8" filter="url(#fibonacci-glow)"/>
      
      <!-- Genie Arms (Floating) -->
      <rect x="-90" y="-20" width="16" height="89" rx="8" fill="url(#golden-aladdin)" transform="rotate(-30 -90 -20)" opacity="0.8"/>
      <rect x="74" y="-20" width="16" height="89" rx="8" fill="url(#golden-aladdin)" transform="rotate(30 74 -20)" opacity="0.8"/>
      
      <!-- Genie Head -->
      <circle cx="0" cy="-116" r="55" fill="url(#golden-aladdin)" opacity="0.8" filter="url(#fibonacci-glow)"/>
      
      <!-- Genie Features -->
      <circle cx="-22" cy="-116" r="13" fill="#0a1128"/>
      <circle cx="22" cy="-116" r="13" fill="#0a1128"/>
      
      <!-- Magic Smoke (Fibonacci Spirals) -->
      <g opacity="0.6" stroke="#FCD34D" stroke-width="4" fill="none">
        <path d="M 0 -171 Q 21 -200 42 -171 Q 63 -142 42 -113 Q 21 -84 0 -113 Q -21 -142 0 -171"/>
        <path d="M 21 -200 Q 42 -229 63 -200 Q 84 -171 63 -142 Q 42 -113 21 -142 Q 0 -171 21 -200"/>
      </g>
    </g>
    
    <!-- Magic Lamp (Fibonacci Size: 55×89px) -->
    <g transform="translate(-150, 50)">
      <ellipse cx="0" cy="0" rx="27" ry="44" fill="url(#golden-aladdin)" filter="url(#fibonacci-glow)"/>
      <path d="M -15 -44 Q 0 -60 15 -44" stroke="#FCD34D" stroke-width="3" fill="none"/>
      <circle cx="0" cy="-55" r="8" fill="#FCD34D" opacity="0.8"/>
    </g>
  </g>
  
  <!-- Golden "A" (Fibonacci Size: 89×144px) -->
  <g transform="translate(512, 620)">
    <path d="M -44 72 L 0 -72 L 44 72" 
          stroke="#FFFFFF" 
          stroke-width="32" 
          stroke-linecap="round" 
          stroke-linejoin="round" 
          fill="none"
          filter="url(#fibonacci-glow)"/>
    <line x1="-22" y1="10" x2="22" y2="10" 
          stroke="#FFFFFF" 
          stroke-width="32" 
          stroke-linecap="round"/>
  </g>
  
  <!-- Fibonacci Spiral Stars -->
  <g opacity="0.7" fill="#FCD34D">
    <!-- Stars positioned on Fibonacci spiral -->
    <g transform="translate(300, 150)">
      <path d="M 0 -21 L 6 -6 L 21 -6 L 10 3 L 16 18 L 0 9 L -16 18 L -10 3 L -21 -6 L -6 -6 Z" opacity="0.8"/>
    </g>
    <g transform="translate(724, 300)">
      <path d="M 0 -21 L 6 -6 L 21 -6 L 10 3 L 16 18 L 0 9 L -16 18 L -10 3 L -21 -6 L -6 -6 Z" opacity="0.8"/>
    </g>
    <g transform="translate(300, 874)">
      <path d="M 0 -21 L 6 -6 L 21 -6 L 10 3 L 16 18 L 0 9 L -16 18 L -10 3 L -21 -6 L -6 -6 Z" opacity="0.8"/>
    </g>
    <g transform="translate(724, 724)">
      <path d="M 0 -21 L 6 -6 L 21 -6 L 10 3 L 16 18 L 0 9 L -16 18 L -10 3 L -21 -6 L -6 -6 Z" opacity="0.8"/>
    </g>
  </g>
  
  <!-- Bottom Text -->
  <text x="512" y="850" 
        font-family="Arial, sans-serif" 
        font-size="55" 
        font-weight="900" 
        fill="#FCD34D" 
        text-anchor="middle"
        letter-spacing="8">ALADDIN</text>
</svg>


