<svg width="1024" height="1024" viewBox="0 0 1024 1024" fill="none" xmlns="http://www.w3.org/2000/svg">
  <defs>
    <!-- Stormy Sky Background -->
    <linearGradient id="storm-bg" x1="0%" y1="0%" x2="100%" y2="100%">
      <stop offset="0%" style="stop-color:#0a1128;stop-opacity:1" />
      <stop offset="50%" style="stop-color:#1e3a5f;stop-opacity:1" />
      <stop offset="100%" style="stop-color:#2e5090;stop-opacity:1" />
    </linearGradient>
    
    <!-- Golden Eye Gradient -->
    <radialGradient id="golden-eye" cx="50%" cy="50%" r="50%">
      <stop offset="0%" style="stop-color:#FCD34D;stop-opacity:1" />
      <stop offset="50%" style="stop-color:#F59E0B;stop-opacity:1" />
      <stop offset="100%" style="stop-color:#D97706;stop-opacity:1" />
    </radialGradient>
    
    <!-- Golden Glow -->
    <linearGradient id="golden-glow" x1="50%" y1="0%" x2="50%" y2="100%">
      <stop offset="0%" style="stop-color:#FCD34D;stop-opacity:0.8" />
      <stop offset="100%" style="stop-color:#F59E0B;stop-opacity:0" />
    </linearGradient>
    
    <!-- Fibonacci Glow Filter -->
    <filter id="fibonacci-glow" x="-50%" y="-50%" width="200%" height="200%">
      <feGaussianBlur stdDeviation="25" result="coloredBlur"/>
      <feMerge>
        <feMergeNode in="coloredBlur"/>
        <feMergeNode in="SourceGraphic"/>
      </feMerge>
    </filter>
  </defs>
  
  <!-- Background -->
  <rect width="1024" height="1024" rx="226" fill="url(#storm-bg)"/>
  
  <!-- Fibonacci Golden Spiral -->
  <g opacity="0.2" stroke="#FCD34D" stroke-width="4" fill="none">
    <!-- Spiral based on Fibonacci sequence -->
    <path d="M 512 512 Q 512 368 656 368 Q 800 368 800 512 Q 800 656 656 656 Q 512 656 512 512 Q 512 512 580 512 Q 648 512 648 580 Q 648 648 580 648 Q 512 648 512 580 Q 512 512 512 512"/>
  </g>
  
  <!-- Mystical Golden Eye (Fibonacci Proportions) -->
  <g transform="translate(512, 450)">
    <!-- Outer Aura (Fibonacci Circle: r=316px) -->
    <circle cx="0" cy="0" r="316" fill="none" stroke="url(#golden-glow)" stroke-width="8" opacity="0.3" filter="url(#fibonacci-glow)"/>
    
    <!-- Eye Shape (Fibonacci Ellipse: 377×233px) -->
    <ellipse cx="0" cy="0" rx="188" ry="116" fill="url(#golden-eye)" filter="url(#fibonacci-glow)"/>
    
    <!-- Eye Inner (Fibonacci Ellipse: 233×144px) -->
    <ellipse cx="0" cy="0" rx="116" ry="72" fill="#D97706"/>
    
    <!-- Pupil (Fibonacci Circle: r=89px) -->
    <circle cx="0" cy="0" r="89" fill="#0a1128"/>
    
    <!-- Mystical Iris Pattern -->
    <g opacity="0.8">
      <!-- Fibonacci Spirals in Iris -->
      <g stroke="#FCD34D" stroke-width="2" fill="none">
        <path d="M 0 0 Q 34 -21 0 -42 Q -34 -63 0 -84 Q 34 -105 0 -126 Q -34 -147 0 -168"/>
        <path d="M 0 0 Q -34 -21 0 -42 Q 34 -63 0 -84 Q -34 -105 0 -126 Q 34 -147 0 -168"/>
        <path d="M 0 0 Q 34 21 0 42 Q -34 63 0 84 Q 34 105 0 126 Q -34 147 0 168"/>
        <path d="M 0 0 Q -34 21 0 42 Q 34 63 0 84 Q -34 105 0 126 Q 34 147 0 168"/>
      </g>
    </g>
    
    <!-- Eye Highlight (Fibonacci Star) -->
    <g transform="translate(-21, -21)">
      <path d="M 21 0 L 26 16 L 42 16 L 29 26 L 34 42 L 21 32 L 8 42 L 13 26 L 0 16 L 16 16 Z" 
            fill="#FFFFFF" opacity="0.9"/>
    </g>
    
    <!-- Eyelashes (Fibonacci Lengths) -->
    <g stroke="#FCD34D" stroke-width="4" fill="none" opacity="0.7">
      <!-- Top Lashes -->
      <path d="M -144 -72 Q -150 -90 -156 -108" stroke-linecap="round"/>
      <path d="M -72 -72 Q -75 -90 -78 -108" stroke-linecap="round"/>
      <path d="M 0 -72 Q 0 -90 0 -108" stroke-linecap="round"/>
      <path d="M 72 -72 Q 75 -90 78 -108" stroke-linecap="round"/>
      <path d="M 144 -72 Q 150 -90 156 -108" stroke-linecap="round"/>
      
      <!-- Bottom Lashes -->
      <path d="M -144 72 Q -150 90 -156 108" stroke-linecap="round"/>
      <path d="M -72 72 Q -75 90 -78 108" stroke-linecap="round"/>
      <path d="M 0 72 Q 0 90 0 108" stroke-linecap="round"/>
      <path d="M 72 72 Q 75 90 78 108" stroke-linecap="round"/>
      <path d="M 144 72 Q 150 90 156 108" stroke-linecap="round"/>
    </g>
    
    <!-- Mystical Symbols Around Eye -->
    <g opacity="0.6" fill="#FCD34D">
      <!-- Fibonacci Circles -->
      <circle cx="-250" cy="0" r="21" opacity="0.8"/>
      <circle cx="250" cy="0" r="21" opacity="0.8"/>
      <circle cx="0" cy="-250" r="21" opacity="0.8"/>
      <circle cx="0" cy="250" r="21" opacity="0.8"/>
      
      <!-- Fibonacci Stars -->
      <g transform="translate(-250, 0)">
        <path d="M 0 -21 L 6 -6 L 21 -6 L 10 3 L 16 18 L 0 9 L -16 18 L -10 3 L -21 -6 L -6 -6 Z" opacity="0.8"/>
      </g>
      <g transform="translate(250, 0)">
        <path d="M 0 -21 L 6 -6 L 21 -6 L 10 3 L 16 18 L 0 9 L -16 18 L -10 3 L -21 -6 L -6 -6 Z" opacity="0.8"/>
      </g>
    </g>
  </g>
  
  <!-- Golden "A" (Fibonacci Size: 89×144px) -->
  <g transform="translate(512, 750)">
    <path d="M -44 72 L 0 -72 L 44 72" 
          stroke="#FFFFFF" 
          stroke-width="32" 
          stroke-linecap="round" 
          stroke-linejoin="round" 
          fill="none"
          filter="url(#fibonacci-glow)"/>
    <line x1="-22" y1="10" x2="22" y2="10" 
          stroke="#FFFFFF" 
          stroke-width="32" 
          stroke-linecap="round"/>
  </g>
  
  <!-- Fibonacci Spiral Stars -->
  <g opacity="0.7" fill="#FCD34D">
    <!-- Stars positioned on Fibonacci grid -->
    <g transform="translate(150, 150)">
      <path d="M 0 -21 L 6 -6 L 21 -6 L 10 3 L 16 18 L 0 9 L -16 18 L -10 3 L -21 -6 L -6 -6 Z" opacity="0.8"/>
    </g>
    <g transform="translate(874, 150)">
      <path d="M 0 -21 L 6 -6 L 21 -6 L 10 3 L 16 18 L 0 9 L -16 18 L -10 3 L -21 -6 L -6 -6 Z" opacity="0.8"/>
    </g>
    <g transform="translate(150, 874)">
      <path d="M 0 -21 L 6 -6 L 21 -6 L 10 3 L 16 18 L 0 9 L -16 18 L -10 3 L -21 -6 L -6 -6 Z" opacity="0.8"/>
    </g>
    <g transform="translate(874, 874)">
      <path d="M 0 -21 L 6 -6 L 21 -6 L 10 3 L 16 18 L 0 9 L -16 18 L -10 3 L -21 -6 L -6 -6 Z" opacity="0.8"/>
    </g>
  </g>
  
  <!-- Bottom Text -->
  <text x="512" y="900" 
        font-family="Arial, sans-serif" 
        font-size="55" 
        font-weight="900" 
        fill="#FCD34D" 
        text-anchor="middle"
        letter-spacing="8">ALADDIN</text>
</svg>


