<svg width="1024" height="1024" viewBox="0 0 1024 1024" fill="none" xmlns="http://www.w3.org/2000/svg">
  <defs>
    <!-- Ultimate Mystical Background -->
    <radialGradient id="ultimate-mystic" cx="50%" cy="25%" r="150%">
      <stop offset="0%" style="stop-color:#1E3A8A;stop-opacity:1" />
      <stop offset="30%" style="stop-color:#1E40AF;stop-opacity:1" />
      <stop offset="70%" style="stop-color:#3B82F6;stop-opacity:1" />
      <stop offset="100%" style="stop-color:#0F172A;stop-opacity:1" />
    </radialGradient>
    
    <!-- Electric Blue Ultimate -->
    <radialGradient id="electric-ultimate" cx="50%" cy="50%" r="50%">
      <stop offset="0%" style="stop-color:#60A5FA;stop-opacity:1" />
      <stop offset="30%" style="stop-color:#3B82F6;stop-opacity:1" />
      <stop offset="70%" style="stop-color:#1D4ED8;stop-opacity:1" />
      <stop offset="100%" style="stop-color:#1E40AF;stop-opacity:1" />
    </radialGradient>
    
    <!-- Golden Sparkle Ultimate -->
    <radialGradient id="golden-ultimate" cx="50%" cy="50%" r="50%">
      <stop offset="0%" style="stop-color:#FCD34D;stop-opacity:1" />
      <stop offset="40%" style="stop-color:#F59E0B;stop-opacity:0.9" />
      <stop offset="80%" style="stop-color:#D97706;stop-opacity:0.6" />
      <stop offset="100%" style="stop-color:#B45309;stop-opacity:0.2" />
    </radialGradient>
    
    <!-- Ultimate Glow -->
    <filter id="ultimate-glow" x="-200%" y="-200%" width="500%" height="500%">
      <feGaussianBlur stdDeviation="35" result="coloredBlur"/>
      <feMerge>
        <feMergeNode in="coloredBlur"/>
        <feMergeNode in="SourceGraphic"/>
      </feMerge>
    </filter>
  </defs>
  
  <!-- Background -->
  <rect width="1024" height="1024" rx="226" fill="url(#ultimate-mystic)"/>
  
  <!-- Ultimate Mystical Face (Full Detail) -->
  <g transform="translate(512, 380)">
    <!-- Face Shape -->
    <ellipse cx="0" cy="0" rx="160" ry="200" fill="url(#electric-ultimate)" filter="url(#ultimate-glow)"/>
    
    <!-- Eye Areas -->
    <ellipse cx="-50" cy="-60" rx="42" ry="28" fill="#1D4ED8" opacity="0.9"/>
    <ellipse cx="50" cy="-60" rx="42" ry="28" fill="#1D4ED8" opacity="0.9"/>
    
    <!-- Mystical Eyes -->
    <ellipse cx="-50" cy="-60" rx="32" ry="21" fill="#3B82F6"/>
    <ellipse cx="50" cy="-60" rx="32" ry="21" fill="#3B82F6"/>
    
    <ellipse cx="-50" cy="-60" rx="20" ry="13" fill="#1E40AF"/>
    <ellipse cx="50" cy="-60" rx="20" ry="13" fill="#1E40AF"/>
    
    <circle cx="-50" cy="-60" r="10" fill="#0F172A"/>
    <circle cx="50" cy="-60" r="10" fill="#0F172A"/>
    
    <!-- Ultimate Star Highlights -->
    <g transform="translate(-60, -68)">
      <path d="M 10 0 L 12 8 L 20 8 L 14 14 L 16 22 L 10 16 L 4 22 L 6 14 L 0 8 L 8 8 Z" 
            fill="#FCD34D" opacity="0.9"/>
    </g>
    <g transform="translate(40, -68)">
      <path d="M 10 0 L 12 8 L 20 8 L 14 14 L 16 22 L 10 16 L 4 22 L 6 14 L 0 8 L 8 8 Z" 
            fill="#FCD34D" opacity="0.9"/>
    </g>
    
    <!-- Golden Eyelids -->
    <path d="M -82 -75 Q -50 -95 -18 -75" stroke="#FCD34D" stroke-width="5" fill="none" opacity="0.8"/>
    <path d="M 18 -75 Q 50 -95 82 -75" stroke="#FCD34D" stroke-width="5" fill="none" opacity="0.8"/>
    
    <!-- Forehead Marking -->
    <ellipse cx="0" cy="-140" rx="15" ry="22" fill="#F59E0B" opacity="0.8"/>
    
    <!-- Ultimate Mystical Hands -->
    <g transform="translate(-110, 110)">
      <ellipse cx="0" cy="0" rx="32" ry="45" fill="url(#electric-ultimate)" opacity="0.7" transform="rotate(-25)"/>
      <ellipse cx="10" cy="10" rx="8" ry="18" fill="url(#electric-ultimate)" opacity="0.7" transform="rotate(-25)"/>
      <ellipse cx="-12" cy="6" rx="8" ry="18" fill="url(#electric-ultimate)" opacity="0.7" transform="rotate(-25)"/>
      <ellipse cx="6" cy="-10" rx="8" ry="18" fill="url(#electric-ultimate)" opacity="0.7" transform="rotate(-25)"/>
      <ellipse cx="-20" cy="-6" rx="8" ry="18" fill="url(#electric-ultimate)" opacity="0.7" transform="rotate(-25)"/>
    </g>
    
    <g transform="translate(110, 110)">
      <ellipse cx="0" cy="0" rx="32" ry="45" fill="url(#electric-ultimate)" opacity="0.7" transform="rotate(25)"/>
      <ellipse cx="-10" cy="10" rx="8" ry="18" fill="url(#electric-ultimate)" opacity="0.7" transform="rotate(25)"/>
      <ellipse cx="12" cy="6" rx="8" ry="18" fill="url(#electric-ultimate)" opacity="0.7" transform="rotate(25)"/>
      <ellipse cx="-6" cy="-10" rx="8" ry="18" fill="url(#electric-ultimate)" opacity="0.7" transform="rotate(25)"/>
      <ellipse cx="20" cy="-6" rx="8" ry="18" fill="url(#electric-ultimate)" opacity="0.7" transform="rotate(25)"/>
    </g>
  </g>
  
  <!-- Ultimate Golden Sparkles (Maximum Bokeh) -->
  <g opacity="0.9">
    <circle cx="160" cy="160" r="8" fill="url(#golden-ultimate)"/>
    <circle cx="840" cy="140" r="10" fill="url(#golden-ultimate)"/>
    <circle cx="120" cy="860" r="9" fill="url(#golden-ultimate)"/>
    <circle cx="880" cy="840" r="11" fill="url(#golden-ultimate)"/>
    <circle cx="280" cy="200" r="7" fill="url(#golden-ultimate)"/>
    <circle cx="720" cy="800" r="9" fill="url(#golden-ultimate)"/>
    <circle cx="80" cy="420" r="6" fill="url(#golden-ultimate)"/>
    <circle cx="940" cy="480" r="10" fill="url(#golden-ultimate)"/>
    <circle cx="220" cy="100" r="8" fill="url(#golden-ultimate)"/>
    <circle cx="780" cy="900" r="9" fill="url(#golden-ultimate)"/>
    <circle cx="360" cy="300" r="7" fill="url(#golden-ultimate)"/>
    <circle cx="640" cy="700" r="8" fill="url(#golden-ultimate)"/>
    <circle cx="140" cy="560" r="6" fill="url(#golden-ultimate)"/>
    <circle cx="860" cy="600" r="9" fill="url(#golden-ultimate)"/>
    <circle cx="400" cy="120" r="7" fill="url(#golden-ultimate)"/>
    <circle cx="600" cy="880" r="8" fill="url(#golden-ultimate)"/>
    <circle cx="200" cy="360" r="6" fill="url(#golden-ultimate)"/>
    <circle cx="800" cy="400" r="10" fill="url(#golden-ultimate)"/>
    <circle cx="320" cy="260" r="7" fill="url(#golden-ultimate)"/>
    <circle cx="680" cy="740" r="9" fill="url(#golden-ultimate)"/>
    <circle cx="240" cy="480" r="8" fill="url(#golden-ultimate)"/>
    <circle cx="760" cy="520" r="7" fill="url(#golden-ultimate)"/>
    <circle cx="380" cy="180" r="6" fill="url(#golden-ultimate)"/>
    <circle cx="620" cy="820" r="9" fill="url(#golden-ultimate)"/>
  </g>
  
  <!-- ALADDIN "A" (Ultimate) -->
  <g transform="translate(512, 720)">
    <path d="M -120 140 L 0 -100 L 120 140" 
          stroke="#FCD34D" 
          stroke-width="40" 
          stroke-linecap="round" 
          stroke-linejoin="round" 
          fill="none"
          opacity="0.9"
          filter="url(#ultimate-glow)"/>
    <line x1="-60" y1="20" x2="60" y2="20" 
          stroke="#FCD34D" 
          stroke-width="40" 
          stroke-linecap="round"
          opacity="0.9"/>
  </g>
  
  <!-- Ultimate Mystical Symbols -->
  <g transform="translate(80, 80)">
    <circle cx="0" cy="0" r="30" fill="none" stroke="#FCD34D" stroke-width="6" opacity="0.8"/>
    <path d="M -20 -20 L 20 20 M 20 -20 L -20 20" stroke="#FCD34D" stroke-width="5" opacity="0.8"/>
    <circle cx="0" cy="0" r="10" fill="#FCD34D" opacity="0.6"/>
    <circle cx="0" cy="0" r="5" fill="#FFFFFF" opacity="0.9"/>
  </g>
  
  <g transform="translate(944, 80)">
    <circle cx="0" cy="0" r="30" fill="none" stroke="#FCD34D" stroke-width="6" opacity="0.8"/>
    <circle cx="0" cy="0" r="20" fill="none" stroke="#FCD34D" stroke-width="5" opacity="0.8"/>
    <circle cx="0" cy="0" r="10" fill="#FCD34D" opacity="0.8"/>
    <circle cx="0" cy="0" r="5" fill="#FFFFFF" opacity="0.9"/>
  </g>
  
  <g transform="translate(80, 944)">
    <circle cx="0" cy="0" r="30" fill="none" stroke="#FCD34D" stroke-width="6" opacity="0.8"/>
    <path d="M -25 -18 Q 0 18 25 -18" stroke="#FCD34D" stroke-width="5" fill="none" opacity="0.8"/>
    <circle cx="0" cy="-18" r="8" fill="#FCD34D" opacity="0.8"/>
    <circle cx="0" cy="-18" r="4" fill="#FFFFFF" opacity="0.9"/>
  </g>
  
  <g transform="translate(944, 944)">
    <circle cx="0" cy="0" r="30" fill="none" stroke="#FCD34D" stroke-width="6" opacity="0.8"/>
    <path d="M -25 18 Q 0 -18 25 18" stroke="#FCD34D" stroke-width="5" fill="none" opacity="0.8"/>
    <circle cx="0" cy="18" r="8" fill="#FCD34D" opacity="0.8"/>
    <circle cx="0" cy="18" r="4" fill="#FFFFFF" opacity="0.9"/>
  </g>
  
  <!-- Ultimate Bottom Text -->
  <text x="512" y="880" 
        font-family="Arial, sans-serif" 
        font-size="64" 
        font-weight="900" 
        fill="#FCD34D" 
        text-anchor="middle"
        letter-spacing="10"
        opacity="0.8"
        filter="url(#ultimate-glow)">ALADDIN</text>
</svg>


